<svg width="8" height="12" viewBox="0 0 8 12" fill="none" xmlns="http://www.w3.org/2000/svg">
<path d="M0.123907 5.72345C0.0414319 5.80361 0.000195503 5.89579 0.000195503 6C0.000195503 6.10421 0.0414319 6.19639 0.123907 6.27655L5.88886 11.8798C5.97133 11.9599 6.06617 12 6.17339 12C6.28061 12 6.37545 11.9599 6.45793 11.8798L7.07648 11.2786C7.15896 11.1984 7.2002 11.1062 7.2002 11.002C7.2002 10.8978 7.15896 10.8056 7.07648 10.7255L2.21463 6L7.07648 1.27455C7.15896 1.19439 7.2002 1.1022 7.2002 0.997996C7.2002 0.893787 7.15896 0.801604 7.07648 0.721443L6.45793 0.12024C6.37545 0.0400798 6.28061 0 6.17339 0C6.06617 0 5.97133 0.0400798 5.88886 0.12024L0.123907 5.72345Z" fill="white"/>
</svg>
