<svg width="12" height="7" viewBox="0 0 12 7" fill="none" xmlns="http://www.w3.org/2000/svg">
<path d="M6.27655 0.122245C6.19639 0.0420845 6.10421 0.00200488 6 0.00200489C5.89579 0.00200489 5.80361 0.0420845 5.72345 0.122245L0.12024 5.72545C0.0400791 5.80561 -4.81789e-08 5.8978 -4.36238e-08 6.002C-3.90687e-08 6.10621 0.0400791 6.1984 0.12024 6.27856L0.721443 6.87976C0.801603 6.95992 0.893786 7 0.997995 7C1.1022 7 1.19439 6.95992 1.27455 6.87976L6 2.15431L10.7255 6.87976C10.8056 6.95992 10.8978 7 11.002 7C11.1062 7 11.1984 6.95992 11.2786 6.87976L11.8798 6.27856C11.9599 6.1984 12 6.10621 12 6.002C12 5.8978 11.9599 5.80561 11.8798 5.72545L6.27655 0.122245Z" fill="white"/>
</svg>
