<svg width="12" height="7" viewBox="0 0 12 7" fill="none" xmlns="http://www.w3.org/2000/svg">
<path d="M5.72345 6.87976C5.80361 6.95992 5.89579 7 6 7C6.10421 7 6.19639 6.95992 6.27655 6.87976L11.8798 1.27655C11.9599 1.19639 12 1.10421 12 1C12 0.895792 11.9599 0.803609 11.8798 0.723448L11.2786 0.122246C11.1984 0.0420849 11.1062 0.00200511 11.002 0.0020051C10.8978 0.0020051 10.8056 0.0420848 10.7255 0.122246L6 4.8477L1.27455 0.122245C1.19439 0.0420844 1.10221 0.00200467 0.997996 0.00200467C0.893787 0.00200466 0.801604 0.0420844 0.721443 0.122245L0.12024 0.723447C0.0400797 0.803608 -3.90687e-08 0.895792 -4.36238e-08 1C-4.81789e-08 1.10421 0.0400797 1.19639 0.12024 1.27655L5.72345 6.87976Z" fill="white"/>
</svg>
