<svg width="16" height="16" viewBox="0 0 16 16" fill="none" xmlns="http://www.w3.org/2000/svg">
<path id="Cart" fill-rule="evenodd" clip-rule="evenodd" d="M15.9948 4.54839C15.9843 4.46236 15.9581 4.3871 15.9162 4.32258C15.8638 4.25806 15.801 4.2043 15.7277 4.16129C15.6543 4.11828 15.581 4.09677 15.5077 4.09677H4.83928L4.02226 1.24194C3.86514 0.682793 3.6347 0.336022 3.33093 0.201613C3.02717 0.0672036 2.79673 0 2.63961 0H0.48707C0.3509 0 0.23568 0.0483866 0.141408 0.145161C0.0471354 0.241936 0 0.365591 0 0.516129C0 0.655915 0.0471354 0.774193 0.141408 0.870968C0.23568 0.967742 0.3509 1.01613 0.48707 1.01613H2.63961C2.68151 1.01613 2.74435 1.03763 2.82815 1.08065C2.91195 1.12366 2.99051 1.27419 3.06383 1.53226L5.84484 12.0161C5.87627 12.1237 5.9365 12.2124 6.02553 12.2823C6.11457 12.3521 6.21146 12.3871 6.3162 12.3871H13.1038C13.2085 12.3871 13.3054 12.3548 13.3944 12.2903C13.4835 12.2258 13.5437 12.1452 13.5751 12.0484L15.9791 4.79032C16 4.71505 16.0052 4.63441 15.9948 4.54839ZM14.7852 5.12905L12.7583 11.3549H6.70924L5.10662 5.12905H14.7852ZM11.768 13.4193C12.1136 13.4193 12.4096 13.5457 12.6557 13.7984C12.9019 14.0511 13.0249 14.3548 13.0249 14.7097C13.0249 15.0645 12.9019 15.3683 12.6557 15.621C12.4096 15.8736 12.1136 16 11.768 16C11.4223 16 11.1264 15.8736 10.8803 15.621C10.6341 15.3683 10.511 15.0645 10.511 14.7097C10.511 14.3548 10.6341 14.0511 10.8803 13.7984C11.1264 13.5457 11.4223 13.4193 11.768 13.4193ZM8.13089 13.7984C7.88474 13.5457 7.58883 13.4193 7.24317 13.4193C6.8975 13.4193 6.6016 13.5457 6.35544 13.7984C6.10929 14.0511 5.98621 14.3548 5.98621 14.7097C5.98621 15.0645 6.10929 15.3683 6.35544 15.621C6.6016 15.8736 6.8975 16 7.24317 16C7.58883 16 7.88474 15.8736 8.13089 15.621C8.37705 15.3683 8.50012 15.0645 8.50012 14.7097C8.50012 14.3548 8.37705 14.0511 8.13089 13.7984Z" fill="#57B3FF"/>
</svg>
