<svg width="177" height="112" viewBox="0 0 177 112" fill="none" xmlns="http://www.w3.org/2000/svg">

<path fill-rule="evenodd" clip-rule="evenodd" d="M88 72C107.33 72 123 56.33 123 37C123 17.67 107.33 2 88 2C68.67 2 53 17.67 53 37C53 56.33 68.67 72 88 72Z" stroke="#EA5F97" stroke-width="3"/>
<mask id="mask0" mask-type="alpha" maskUnits="userSpaceOnUse" x="63" y="19" width="50" height="35">
<path fill-rule="evenodd" clip-rule="evenodd" d="M67.328 36.498C69.32 39.63 76.51 49.5 88 49.5C99.532 49.5 106.688 39.638 108.672 36.502C106.68 33.37 99.49 23.5 88 23.5C76.468 23.5 69.312 33.362 67.328 36.498ZM88 19.5C104.016 19.5 112.414 34.904 112.766 35.558C113.078 36.148 113.078 36.852 112.766 37.442C112.414 38.096 104.016 53.5 88 53.5C71.984 53.5 63.586 38.096 63.234 37.442C62.922 36.852 62.922 36.148 63.234 35.558C63.586 34.904 71.984 19.5 88 19.5ZM81.7388 39.6308C83.4648 43.0828 87.6808 44.4888 91.1308 42.7608C94.5848 41.0348 95.9888 36.8208 94.2608 33.3688C93.0348 30.9208 90.5568 29.5008 87.9888 29.5008C86.9368 29.5008 85.8708 29.7388 84.8688 30.2388C81.4168 31.9648 80.0108 36.1788 81.7388 39.6308ZM83.0808 26.6608C88.5068 23.9508 95.1268 26.1568 97.8388 31.5788V31.5808C100.553 37.0068 98.3428 43.6268 92.9208 46.3388C91.3448 47.1248 89.6708 47.4988 88.0188 47.4988C83.9808 47.4988 80.0868 45.2688 78.1608 41.4208C75.4468 35.9948 77.6568 29.3748 83.0808 26.6608Z" fill="white"/>
</mask>
<g mask="url(#mask0)">
<rect x="63" y="11.5" width="50" height="50" fill="#EA5F97"/>
</g>
<defs>
<clipPath id="clip0">
<rect width="177" height="22" fill="white" transform="translate(0 90)"/>
</clipPath>
</defs>
</svg>
